<?xml version="1.0" standalone="no"?>
<!DOCTYPE svg PUBLIC "-//W3C//DTD SVG 20010904//EN"
 "http://www.w3.org/TR/2001/REC-SVG-20010904/DTD/svg10.dtd">
<svg version="1.0" xmlns="http://www.w3.org/2000/svg"
 width="500.000000pt" height="500.000000pt" viewBox="0 0 500.000000 500.000000"
 preserveAspectRatio="xMidYMid meet">
<metadata>
Created by potrace 1.11, written by Peter Selinger 2001-2013
</metadata>
<g transform="translate(0.000000,500.000000) scale(0.100000,-0.100000)"
fill="#000000" stroke="none">
<path d="M3175 4984 c-162 -26 -296 -78 -431 -167 -51 -34 -258 -234 -759
-733 -378 -378 -722 -715 -764 -749 -42 -34 -248 -233 -458 -442 l-381 -381
1131 -1130 c623 -622 1152 -1146 1177 -1165 183 -138 393 -208 620 -209 119
-1 151 3 256 27 253 59 486 226 631 453 59 91 119 234 137 326 3 14 17 105 20
128 1 10 5 21 9 24 4 4 1 14 -6 22 -6 9 -7 13 -1 9 7 -4 10 14 10 54 -1 32 -3
59 -6 59 -4 0 -6 10 -7 23 -1 89 -40 238 -90 347 -67 146 -128 218 -534 623
-214 213 -389 390 -389 393 0 4 174 180 387 393 213 212 412 420 442 461 72
97 134 229 167 355 21 82 26 125 27 235 1 74 -2 153 -6 175 -4 22 -10 54 -13
70 -8 45 -53 174 -82 230 -144 288 -416 498 -727 561 -11 2 -33 7 -50 10 -56
11 -240 10 -310 -2z m233 -645 c71 -23 131 -59 181 -109 256 -256 86 -698
-276 -715 -131 -7 -226 29 -320 121 -164 161 -166 428 -3 592 53 53 149 107
215 120 53 11 156 6 203 -9z m-1493 -1464 c17 -4 48 -17 70 -27 44 -22 1595
-1562 1646 -1635 86 -124 67 -318 -43 -427 -24 -23 -70 -55 -103 -72 -53 -25
-71 -29 -145 -29 -156 1 -84 -62 -1102 954 l-903 901 135 136 c138 138 189
177 263 199 44 13 132 13 182 0z"/>
</g>
</svg>
