<?xml version="1.0" standalone="no"?>
<!DOCTYPE svg PUBLIC "-//W3C//DTD SVG 20010904//EN"
 "http://www.w3.org/TR/2001/REC-SVG-20010904/DTD/svg10.dtd">
<svg version="1.0" xmlns="http://www.w3.org/2000/svg"
 width="144.000000pt" height="144.000000pt" viewBox="0 0 144.000000 144.000000"
 preserveAspectRatio="xMidYMid meet">
<metadata>
Created by potrace 1.14, written by Peter Selinger 2001-2017
</metadata>
<g transform="translate(0.000000,144.000000) scale(0.100000,-0.100000)"
fill="#000000" stroke="none">
<path d="M1004 1325 c-18 -14 -46 -47 -63 -74 -28 -43 -30 -52 -19 -70 10 -16
9 -46 -6 -161 -9 -78 -22 -154 -28 -170 -12 -36 -35 -41 -191 -45 -62 -2 -134
-6 -161 -10 l-49 -7 6 38 c3 22 17 116 31 210 14 94 30 183 36 198 17 44 12
74 -14 91 -21 14 -28 14 -58 2 -54 -23 -67 -45 -72 -122 -15 -229 -51 -460
-76 -492 -25 -32 -25 -49 -1 -110 12 -33 20 -88 24 -178 8 -161 15 -189 48
-193 36 -4 69 26 109 101 35 66 36 94 2 64 -10 -10 -24 -17 -30 -17 -16 0 -25
59 -20 150 3 75 5 82 33 105 17 14 48 30 70 37 22 7 52 21 67 31 22 16 37 19
80 14 32 -3 62 -1 73 6 23 13 65 17 65 5 0 -4 -16 -103 -35 -220 -19 -117 -36
-253 -37 -303 -3 -84 -2 -90 18 -93 35 -5 50 29 78 168 15 74 41 187 57 251
17 64 38 163 49 220 10 57 28 145 39 196 11 50 20 113 19 140 0 26 5 85 11
130 12 84 7 133 -13 133 -6 0 -25 -11 -42 -25z"/>
</g>
</svg>
